# xmcd
#
# Track frame offsets: 
#        182
#        12437
#        23915
#        36090
#        48302
#        61520
#        72552
#        80340
#        91700
#        103807
#        113822
#        123422
#        130045
#        140175
#        152827
#        165387
#        177055
#        188257
#        199015
#        210332
#
# Disc length: 2933 seconds
#
# Revision: 1
# Processed by: cddbd v1.5.1PL0 Copyright (c) Steve Scherf et al.
# Submitted via: ExactAudioCopy v0.95a5
#
DISCID=000b7314
DTITLE=Various Artist - Country Greats -  Disc 3
DYEAR=1996
DGENRE=Country
TTITLE0=Faron Young - Sweet Dreams
TTITLE1=Patsy Cline - I've Loved And Lost Again
TTITLE2=Waylon Jennings - Don't Think Twice
TTITLE3=Willie Nelson - I Can't Find The Time
TTITLE4=Lynn Anderson - (I Never Promised You A) Rose Garden
TTITLE5=Kenny Rogers and The First Edition - Always Leaving, Always Gone
TTITLE6=Roy Drusky - Hello Walls
TTITLE7=Donna Fargo - Wishful Thinking
TTITLE8=Stonewall Jackson - I Can't Get Enough Of You
TTITLE9=Freddy Fender - Before The Next Teardrop Falls (Live)
TTITLE10=Barbara Mandrell - Release Me (Live)
TTITLE11=Jim Reeves - Have I Told You Lately That I Love You (Live)
TTITLE12=Mickey Gilley - Lonely Wine
TTITLE13=Kitty Wells - Making Believe
TTITLE14=Faron Young - It's Four In The Morning
TTITLE15=George Jones - Your Tender Years
TTITLE16=Patsy Cline - Hungry For Love
TTITLE17=Kenny Rogers and The First Edition - She Even Woke Me Up To Say
TTITLE17=Goodbye
TTITLE18=Roy Drusky - The Last Letter
TTITLE19=Freddy Fender - I Don't Know Why I Love You But I Do
EXTD=
EXTT0=
EXTT1=
EXTT2=
EXTT3=
EXTT4=
EXTT5=
EXTT6=
EXTT7=
EXTT8=
EXTT9=
EXTT10=
EXTT11=
EXTT12=
EXTT13=
EXTT14=
EXTT15=
EXTT16=
EXTT17=
EXTT18=
EXTT19=
PLAYORDER=
